<svg xmlns="http://www.w3.org/2000/svg" enable-background="new 0 0 192 192" height="192" viewBox="0 0 192 192" width="192"><rect fill="none" height="192" width="192"/><g><g><polygon fill="#0066DA" points="147.34,34.66 134,42 127.42,54.58 134,70 146.48,83.52 160,76 168.29,61.71 160,44"/><path d="M95.78,86.22l31.64-31.64c9.32,7.08,16.17,17.23,19.06,28.94l-43.41,43.41c-3.91,3.91-10.24,3.91-14.14,0 L59.66,97.66c-3.12-3.12-3.12-8.19,0-11.31l12.47-12.47c3.12-3.12,8.19-3.12,11.31,0L95.78,86.22z M182.34,36.34l-12.69-12.69 c-3.12-3.12-8.19-3.12-11.31,0l-11,11c8.79,7.36,15.97,16.58,20.95,27.05l14.05-14.05C185.47,44.53,185.47,39.47,182.34,36.34z M148,96c0,28.72-23.28,52-52,52s-52-23.28-52-52s23.28-52,52-52c11.81,0,22.69,3.94,31.42,10.58l19.92-19.92 C133.45,23.02,115.55,16,96,16c-44.18,0-80,35.82-80,80c0,44.18,35.82,80,80,80s80-35.82,80-80c0-12.27-2.77-23.9-7.71-34.29 l-21.81,21.81C147.47,87.52,148,91.7,148,96z" fill="#2684FC"/></g></g></svg>